<svg width="22" height="22" viewBox="0 0 22 22" fill="none" xmlns="http://www.w3.org/2000/svg">
<path d="M5.99718 4.5835H12.3368C12.764 4.5835 13.1178 4.5835 13.3919 4.60916C13.6642 4.63483 13.952 4.69166 14.1784 4.87866C14.4883 5.13258 14.6643 5.51391 14.667 5.91358C14.6688 6.20325 14.5387 6.46358 14.3911 6.70008C14.2417 6.93841 14.0244 7.22533 13.7586 7.57458L11.3844 10.7041C11.1589 11.0011 11.0847 11.1019 11.0333 11.2092C10.9829 11.3138 10.946 11.4243 10.9233 11.5382C10.8995 11.6574 10.8977 11.7857 10.8977 12.1634V16.0464C10.8977 16.2435 10.8977 16.4204 10.8858 16.5625C10.8729 16.7027 10.8436 16.8916 10.7235 17.0547C10.6476 17.1593 10.5496 17.2459 10.4365 17.3083C10.3234 17.3707 10.1979 17.4074 10.069 17.4159C9.86093 17.4287 9.68493 17.3453 9.56301 17.2766C9.44109 17.2078 9.29718 17.1088 9.14043 17.0007L8.23843 16.3773L8.19993 16.3507C8.01659 16.2252 7.85159 16.1124 7.72876 15.9566C7.62107 15.8202 7.5402 15.6647 7.49043 15.4982C7.43543 15.3076 7.43543 15.1068 7.43543 14.8786V12.1643C7.43543 11.7867 7.43451 11.6574 7.41068 11.5392C7.38805 11.4253 7.35109 11.3147 7.30068 11.2101C7.24935 11.1028 7.17509 11.002 6.94959 10.705L4.60476 7.61583L4.59926 7.60666L4.57451 7.5755C4.35182 7.29298 4.14111 7.00122 3.94293 6.701C3.79534 6.46541 3.66518 6.20416 3.66701 5.9145C3.66884 5.51483 3.84576 5.1335 4.15559 4.87866C4.38201 4.69258 4.66893 4.63575 4.94209 4.61008C5.21618 4.5835 5.57001 4.5835 5.99718 4.5835ZM5.88993 7.79183L7.67926 10.1495L7.70493 10.1834C7.89559 10.4346 8.02943 10.6097 8.12568 10.8086C8.21123 10.9846 8.27296 11.1691 8.31084 11.3622C8.35301 11.5786 8.35301 11.8013 8.35301 12.1212V14.8309C8.35301 15.1334 8.35668 15.193 8.37135 15.2397C8.38723 15.2947 8.41229 15.3436 8.44651 15.3864C8.47401 15.4212 8.51526 15.4552 8.7591 15.6238L9.64459 16.2343C9.79768 16.3397 9.89851 16.4085 9.97459 16.4552C9.98101 16.3608 9.98101 16.2297 9.98101 16.0272V12.1212C9.98101 11.8004 9.98101 11.5786 10.0232 11.3622C10.0617 11.1691 10.1234 10.9846 10.2083 10.8086C10.3046 10.6097 10.4384 10.4346 10.63 10.1825L10.6548 10.1495L12.4441 7.79183H5.88993ZM13.1389 6.87516C13.3553 6.59008 13.5083 6.382 13.6138 6.21425C13.7421 6.00891 13.7513 5.93466 13.7503 5.91816C13.7506 5.85494 13.7369 5.79244 13.7103 5.73509C13.6837 5.67774 13.6448 5.62695 13.5963 5.58633C13.5918 5.58266 13.5395 5.54416 13.3067 5.52216C13.0803 5.50016 12.7695 5.50016 12.313 5.50016H6.02101C5.56359 5.50016 5.25376 5.50016 5.02734 5.52216C4.79451 5.54416 4.74226 5.58266 4.73768 5.58633C4.68923 5.62695 4.65032 5.67774 4.62371 5.73509C4.59709 5.79244 4.58343 5.85494 4.58368 5.91816C4.58368 5.93466 4.59193 6.00983 4.72026 6.21425C4.82568 6.382 4.97876 6.59008 5.19509 6.87516H13.1389ZM14.667 9.62516C14.667 9.50361 14.7153 9.38703 14.8013 9.30107C14.8872 9.21512 15.0038 9.16683 15.1253 9.16683H17.8753C17.9969 9.16683 18.1135 9.21512 18.1994 9.30107C18.2854 9.38703 18.3337 9.50361 18.3337 9.62516C18.3337 9.74672 18.2854 9.8633 18.1994 9.94925C18.1135 10.0352 17.9969 10.0835 17.8753 10.0835H15.1253C15.0038 10.0835 14.8872 10.0352 14.8013 9.94925C14.7153 9.8633 14.667 9.74672 14.667 9.62516ZM13.292 11.9168C13.292 11.7953 13.3403 11.6787 13.4263 11.5927C13.5122 11.5068 13.6288 11.4585 13.7503 11.4585H17.8753C17.9969 11.4585 18.1135 11.5068 18.1994 11.5927C18.2854 11.6787 18.3337 11.7953 18.3337 11.9168C18.3337 12.0384 18.2854 12.155 18.1994 12.2409C18.1135 12.3269 17.9969 12.3752 17.8753 12.3752H13.7503C13.6288 12.3752 13.5122 12.3269 13.4263 12.2409C13.3403 12.155 13.292 12.0384 13.292 11.9168ZM12.8337 14.2085C12.8337 14.0869 12.882 13.9704 12.9679 13.8844C13.0539 13.7985 13.1705 13.7502 13.292 13.7502H17.8753C17.9969 13.7502 18.1135 13.7985 18.1994 13.8844C18.2854 13.9704 18.3337 14.0869 18.3337 14.2085C18.3337 14.3301 18.2854 14.4466 18.1994 14.5326C18.1135 14.6185 17.9969 14.6668 17.8753 14.6668H13.292C13.1705 14.6668 13.0539 14.6185 12.9679 14.5326C12.882 14.4466 12.8337 14.3301 12.8337 14.2085ZM12.8337 16.5002C12.8337 16.3786 12.882 16.262 12.9679 16.1761C13.0539 16.0901 13.1705 16.0418 13.292 16.0418H15.5837C15.7052 16.0418 15.8218 16.0901 15.9078 16.1761C15.9937 16.262 16.042 16.3786 16.042 16.5002C16.042 16.6217 15.9937 16.7383 15.9078 16.8243C15.8218 16.9102 15.7052 16.9585 15.5837 16.9585H13.292C13.1705 16.9585 13.0539 16.9102 12.9679 16.8243C12.882 16.7383 12.8337 16.6217 12.8337 16.5002Z" fill="#333333"/>
</svg>
